<svg width="26" height="26" viewBox="0 0 26 26" fill="none" xmlns="http://www.w3.org/2000/svg">
<path d="M13.0001 21.6667C15.2986 21.6667 17.503 20.7536 19.1283 19.1283C20.7537 17.503 21.6667 15.2986 21.6667 13C21.6667 10.7015 20.7537 8.49708 19.1283 6.87176C17.503 5.24645 15.2986 4.33335 13.0001 4.33335C10.7015 4.33335 8.49714 5.24645 6.87182 6.87176C5.24651 8.49708 4.33341 10.7015 4.33341 13C4.33341 15.2986 5.24651 17.503 6.87182 19.1283C8.49714 20.7536 10.7015 21.6667 13.0001 21.6667ZM13.0001 23.8334C7.01683 23.8334 2.16675 18.9833 2.16675 13C2.16675 7.01677 7.01683 2.16669 13.0001 2.16669C18.9833 2.16669 23.8334 7.01677 23.8334 13C23.8334 18.9833 18.9833 23.8334 13.0001 23.8334Z" fill="#FBFCFF"/>
<path d="M18.4166 9.69261C18.0179 9.86595 17.59 9.98512 17.1404 10.0371C17.5998 9.76628 17.9508 9.33728 18.1176 8.82703C17.6799 9.08212 17.2023 9.26158 16.7049 9.35786C16.4957 9.13857 16.244 8.96419 15.9652 8.84536C15.6864 8.72653 15.3863 8.66574 15.0832 8.6667C13.8558 8.6667 12.8613 9.64712 12.8613 10.855C12.8613 11.0262 12.8808 11.193 12.9187 11.3534C12.0383 11.3116 11.1763 11.0867 10.3876 10.6931C9.59898 10.2996 8.90105 9.74591 8.33834 9.06753C8.1407 9.40022 8.03664 9.78015 8.03717 10.1671C8.03717 10.9254 8.43042 11.5971 9.02625 11.9882C8.67357 11.9771 8.32843 11.8832 8.01875 11.7141V11.7412C8.0221 12.2498 8.20162 12.7415 8.52675 13.1326C8.85187 13.5237 9.30251 13.79 9.80192 13.8862C9.47406 13.9729 9.131 13.9855 8.79767 13.923C8.94297 14.3606 9.2209 14.742 9.59286 15.0144C9.96482 15.2867 10.4124 15.4365 10.8733 15.4429C10.0825 16.0524 9.11144 16.3816 8.113 16.3789C7.93425 16.3789 7.75767 16.3681 7.58325 16.3486C8.6021 16.9935 9.78346 17.3351 10.9893 17.3334C15.0778 17.3334 17.3127 13.9989 17.3127 11.1064L17.3051 10.8225C17.7409 10.5163 18.1175 10.1334 18.4166 9.69261Z" fill="#FBFCFF"/>
</svg>
